<svg width="169" height="38" viewBox="0 0 169 38" fill="none" xmlns="http://www.w3.org/2000/svg">
<g clip-path="url(#clip0_30_1414)">
<g clip-path="url(#clip1_30_1414)">
<path d="M35.3459 3.20264C34.1627 3.20264 33.1947 3.20264 33.1947 3.20264C33.1947 3.20264 32.2267 3.20264 31.0436 3.20264H9.80082C8.61768 3.20264 7.64966 4.17066 7.64966 5.3538V9.7099C7.64966 10.893 7.64966 11.9148 7.64966 11.9686C7.64966 12.0224 7.64966 13.0442 7.64966 14.2273V34.771C7.64966 35.9541 8.61768 36.9221 9.80082 36.9221H14.3183C15.5014 36.9221 16.4694 35.9541 16.4694 34.771V14.2273C16.4694 13.0442 17.4375 12.0762 18.6206 12.0762H30.2906C31.4738 12.0762 32.4418 13.0442 32.4418 14.2273V25.8974C32.4418 27.0805 31.4738 28.0486 30.2906 28.0486H23.622C22.4389 28.0486 21.4709 29.0166 21.4709 30.1997V34.7172C21.4709 35.9003 22.4389 36.8683 23.622 36.8683H30.3444C31.5276 36.8683 32.4956 36.8683 32.4956 36.8683C32.4956 36.8683 33.4636 36.8683 34.6468 36.8683H39.1642C40.3473 36.8683 41.3154 35.9003 41.3154 34.7172V5.3538C41.3154 4.17066 40.3473 3.20264 39.1642 3.20264H35.3459Z" fill="#00833E"/>
<path d="M48.8445 17.5079H51.7486V19.3901H51.8023C52.609 18.4221 54.4913 17.239 57.3954 17.239C62.1817 17.239 64.548 20.3582 64.548 23.9076C64.548 27.5108 62.4506 31.0602 57.4491 31.0602C54.5451 31.0602 52.8779 30.146 51.9637 28.909H51.9099V36.1692H48.8445V17.5079ZM56.75 19.175C53.4695 19.175 51.8561 21.7026 51.8561 24.1765C51.8561 26.3814 53.2544 29.1242 56.6962 29.1242C59.9767 29.1242 61.3212 26.2201 61.2674 24.1227C61.375 21.7026 60.0843 19.175 56.75 19.175Z" fill="black"/>
<path d="M68.3126 18.4759C69.8184 17.7768 71.6469 17.239 73.7443 17.239C78.4768 17.239 80.4129 19.1212 80.4129 22.7244V28.2099C80.4129 29.7157 80.4666 30.4148 80.5204 30.7913H77.6701V29.0704H77.6163C76.9172 29.8771 75.3038 31.114 72.5073 31.114C68.9579 31.114 66.4303 29.8771 66.4303 26.973C66.4303 23.6387 70.9477 22.6169 74.1207 22.6169C75.3038 22.6169 76.1643 22.6169 77.3474 22.6707C77.3474 20.4119 76.3256 19.2288 73.2602 19.2288C71.5393 19.2288 69.7108 19.7666 68.4739 20.5733L68.3126 18.4759ZM77.4012 24.4454C76.7559 24.4454 76.1105 24.3916 75.4652 24.3916C73.798 24.3916 69.7108 24.6067 69.7108 26.9192C69.7108 28.3175 71.378 29.0704 72.7762 29.0704C75.7879 29.0704 77.4012 27.5646 77.4012 25.5747V24.4454Z" fill="black"/>
<path d="M83.2631 34.3407C83.6395 34.4483 84.1773 34.5558 84.6614 34.5558C87.4041 34.5558 88.2645 31.5442 88.2645 31.2753C88.2645 31.0064 87.8881 30.3073 87.673 29.8771L82.08 17.5616H85.4143L89.8779 28.4788H89.9317L94.4491 17.5616H97.5145L91.4375 31.0602C90.3082 33.5878 89.125 36.5457 85.0916 36.5457C84.1236 36.5457 83.5858 36.4381 82.9942 36.3843L83.2631 34.3407Z" fill="black"/>
<path d="M110.153 19.7666C108.969 19.3901 107.84 19.175 106.872 19.175C103.484 19.175 101.548 21.5951 101.548 24.1227C101.548 26.489 103.161 29.0704 107.033 29.0704C108.055 29.0704 109.346 28.8015 110.314 28.3175L110.529 30.4686C109.292 30.9526 107.786 31.0064 106.711 31.0064C101.709 31.0064 98.2675 27.8872 98.2675 24.0689C98.2675 20.0355 101.656 17.1314 106.711 17.1314C107.948 17.1314 109.507 17.3465 110.422 17.6692L110.153 19.7666Z" fill="black"/>
<path d="M120.263 17.239C125.265 17.239 128.653 20.143 128.653 24.1765C128.653 27.941 125.211 31.114 120.263 31.114C115.262 31.114 111.82 27.9948 111.82 24.1765C111.874 20.143 115.208 17.239 120.263 17.239ZM120.263 29.0704C123.813 29.0704 125.426 26.489 125.426 24.1227C125.426 21.5951 123.49 19.175 120.263 19.175C116.983 19.175 115.1 21.5951 115.1 24.1227C115.1 26.489 116.66 29.0704 120.263 29.0704Z" fill="black"/>
<path d="M131.664 17.5079H134.514V19.4439H134.568C135.751 17.9381 137.365 17.239 139.839 17.239C141.775 17.239 143.657 17.9919 144.517 19.8204C145.647 17.9381 148.174 17.239 149.626 17.239C153.821 17.239 155.381 19.3901 155.381 22.2942V30.7913H152.315V22.8858C152.315 21.2724 151.831 19.2288 149.358 19.2288C146.238 19.2288 145.001 21.6489 145.001 24.1227V30.7913H141.936V22.8858C141.936 21.2724 141.452 19.2288 138.978 19.2288C135.859 19.2288 134.622 21.6489 134.622 24.1227V30.7913H131.557V17.5079H131.664Z" fill="black"/>
<path d="M157.048 19.8204C157.048 18.5835 158.07 17.5616 159.307 17.5616C160.544 17.5616 161.565 18.5835 161.565 19.8204C161.565 21.0573 160.544 22.0791 159.307 22.0791C158.07 22.0791 157.048 21.0573 157.048 19.8204ZM161.028 19.8204C161.028 18.7448 160.275 17.9919 159.307 17.9919C158.392 17.9919 157.586 18.7448 157.586 19.8204C157.586 20.896 158.339 21.6489 159.307 21.6489C160.275 21.6489 161.028 20.896 161.028 19.8204ZM158.446 18.5297H159.414C160.006 18.5297 160.329 18.7448 160.329 19.2826C160.329 19.7128 160.06 19.9279 159.683 19.9817L160.382 21.1111H159.898L159.253 20.0355H158.984V21.1111H158.5V18.5297H158.446ZM158.93 19.659H159.36C159.629 19.659 159.898 19.6053 159.898 19.2826C159.898 18.9599 159.629 18.9599 159.36 18.9599H158.93V19.659Z" fill="black"/>
</g>
</g>
<defs>
<clipPath id="clip0_30_1414">
<rect width="169" height="37" fill="white" transform="translate(0 0.890137)"/>
</clipPath>
<clipPath id="clip1_30_1414">
<rect width="169" height="37" fill="white" transform="translate(0 0.890137)"/>
</clipPath>
</defs>
</svg>
